<svg xmlns="http://www.w3.org/2000/svg" version="1.1" xmlns:xlink="http://www.w3.org/1999/xlink" xmlns:svgjs="http://svgjs.com/svgjs" width="512" height="512" x="0" y="0" viewBox="0 0 512 512" style="enable-background:new 0 0 512 512" xml:space="preserve" class=""><g><path d="M256 0C147.925 0 60 87.925 60 196c0 34.594 9.14 68.605 26.431 98.355a196.851 196.851 0 0 0 13.395 20.09L247.484 512h17.031l147.659-197.554a197.293 197.293 0 0 0 13.395-20.09C442.86 264.605 452 230.594 452 196 452 87.925 364.075 0 256 0zm0 261c-35.841 0-65-29.159-65-65s29.159-65 65-65 65 29.159 65 65-29.159 65-65 65z" fill="#fdfdfd" data-original="#000000" class=""></path></g></svg>